<svg width="48" height="48" viewBox="0 0 48 48" fill="none" xmlns="http://www.w3.org/2000/svg">
<path d="M24 3C29.5695 3 34.911 5.21249 38.8492 9.15076C42.7875 13.089 45 18.4305 45 24C45 29.5695 42.7875 34.911 38.8492 38.8492C34.911 42.7875 29.5695 45 24 45C18.4305 45 13.089 42.7875 9.15076 38.8492C5.21249 34.911 3 29.5695 3 24C3 18.4305 5.21249 13.089 9.15076 9.15076C13.089 5.21249 18.4305 3 24 3ZM24 42C28.7739 42 33.3523 40.1036 36.7279 36.7279C40.1036 33.3523 42 28.7739 42 24C42 19.2261 40.1036 14.6477 36.7279 11.2721C33.3523 7.89642 28.7739 6 24 6C19.2261 6 14.6477 7.89642 11.2721 11.2721C7.89642 14.6477 6 19.2261 6 24C6 28.7739 7.89642 33.3523 11.2721 36.7279C14.6477 40.1036 19.2261 42 24 42ZM26.25 33.75C26.25 34.3467 26.0129 34.919 25.591 35.341C25.169 35.7629 24.5967 36 24 36C23.4033 36 22.831 35.7629 22.409 35.341C21.9871 34.919 21.75 34.3467 21.75 33.75C21.75 33.1533 21.9871 32.581 22.409 32.159C22.831 31.7371 23.4033 31.5 24 31.5C24.5967 31.5 25.169 31.7371 25.591 32.159C26.0129 32.581 26.25 33.1533 26.25 33.75ZM24 12C24.3978 12 24.7794 12.158 25.0607 12.4393C25.342 12.7206 25.5 13.1022 25.5 13.5V27C25.5 27.3978 25.342 27.7794 25.0607 28.0607C24.7794 28.342 24.3978 28.5 24 28.5C23.6022 28.5 23.2206 28.342 22.9393 28.0607C22.658 27.7794 22.5 27.3978 22.5 27V13.5C22.5 13.1022 22.658 12.7206 22.9393 12.4393C23.2206 12.158 23.6022 12 24 12Z" fill="#EF4444"/>
</svg>
