<svg width="48" height="48" viewBox="0 0 48 48" fill="none" xmlns="http://www.w3.org/2000/svg">
<path d="M26 34C26 33.7376 25.9483 33.4778 25.8479 33.2354C25.7475 32.993 25.6003 32.7727 25.4148 32.5872C25.2293 32.4017 25.009 32.2545 24.7666 32.1541C24.5242 32.0537 24.2644 32.002 24.002 32.002C23.7396 32.002 23.4798 32.0537 23.2374 32.1541C22.995 32.2545 22.7747 32.4017 22.5892 32.5872C22.4037 32.7727 22.2565 32.993 22.1561 33.2354C22.0557 33.4778 22.004 33.7376 22.004 34C22.0204 34.5187 22.238 35.0107 22.6107 35.3718C22.9834 35.7329 23.482 35.9348 24.001 35.9348C24.5199 35.9348 25.0185 35.7329 25.3913 35.3718C25.764 35.0107 25.9816 34.5187 25.998 34M25.478 18.294C25.4262 17.9173 25.2332 17.5744 24.9382 17.3345C24.6432 17.0947 24.2681 16.9758 23.8887 17.002C23.5094 17.0282 23.1542 17.1974 22.8949 17.4755C22.6356 17.7536 22.4916 18.1198 22.492 18.5L22.5 27.502L22.514 27.706C22.5658 28.0827 22.7587 28.4256 23.0538 28.6655C23.3488 28.9053 23.7239 29.0242 24.1032 28.998C24.4825 28.9718 24.8378 28.8026 25.0971 28.5245C25.3564 28.2464 25.5004 27.8802 25.5 27.5L25.492 18.496L25.478 18.294ZM27.938 7.318C26.224 4.222 21.774 4.222 20.062 7.318L4.57199 35.32C2.91199 38.32 5.08199 42 8.51199 42H39.492C42.92 42 45.09 38.32 43.43 35.32L27.938 7.318ZM22.686 8.77C22.8156 8.53531 23.0058 8.33965 23.2367 8.2034C23.4676 8.06715 23.7309 7.99528 23.999 7.99528C24.2671 7.99528 24.5303 8.06715 24.7612 8.2034C24.9922 8.33965 25.1823 8.53531 25.312 8.77L40.804 36.774C40.9304 37.0025 40.9949 37.26 40.9912 37.521C40.9876 37.7821 40.9158 38.0377 40.7831 38.2625C40.6504 38.4873 40.4613 38.6736 40.2345 38.803C40.0077 38.9323 39.7511 39.0002 39.49 39H8.51199C8.2509 39.0002 7.99427 38.9323 7.76748 38.803C7.54068 38.6736 7.35157 38.4873 7.21885 38.2625C7.08613 38.0377 7.0144 37.7821 7.01074 37.521C7.00708 37.26 7.07162 37.0025 7.19799 36.774L22.686 8.77Z" fill="#EAB308"/>
</svg>
