<svg width="60" height="60" viewBox="0 0 60 60" fill="none" xmlns="http://www.w3.org/2000/svg">
<path d="M34.9988 52.5C34.336 52.499 33.7008 52.235 33.2325 51.7661C32.7643 51.2971 32.5012 50.6615 32.5012 49.9988V30C32.5012 28.62 33.6188 27.4988 34.9988 27.4988H49.9988C51.3788 27.4988 52.5 28.62 52.5 30V49.9988C52.5 50.6621 52.2365 51.2983 51.7674 51.7674C51.2983 52.2365 50.6621 52.5 49.9988 52.5H34.9988ZM10.0013 32.5012C9.33788 32.5012 8.70167 32.2377 8.2326 31.7687C7.76352 31.2996 7.5 30.6634 7.5 30V10.0013C7.5 8.6175 8.6175 7.5 10.0013 7.5H25.0012C26.3812 7.5 27.4988 8.6175 27.4988 10.0013V30C27.4988 30.6627 27.2357 31.2984 26.7675 31.7673C26.2992 32.2363 25.664 32.5003 25.0012 32.5012H10.0013ZM22.5 27.4988V12.4987H12.4987V27.4988H22.5ZM10.0013 52.5C9.33788 52.5 8.70167 52.2365 8.2326 51.7674C7.76352 51.2983 7.5 50.6621 7.5 49.9988V40.0012C7.5 38.6212 8.6175 37.5 10.0013 37.5H25.0012C26.3812 37.5 27.4988 38.6212 27.4988 40.0012V49.9988C27.4988 50.6615 27.2357 51.2971 26.7675 51.7661C26.2992 52.235 25.664 52.499 25.0012 52.5H10.0013ZM12.4987 47.5012H22.5V42.4988H12.4987V47.5012ZM37.5 47.5012H47.5012V32.5012H37.5V47.5012ZM32.5012 10.0013C32.5012 8.6175 33.6188 7.5 34.9988 7.5H49.9988C51.3788 7.5 52.5 8.6175 52.5 10.0013V19.9988C52.5 20.6621 52.2365 21.2983 51.7674 21.7674C51.2983 22.2365 50.6621 22.5 49.9988 22.5H34.9988C34.336 22.499 33.7008 22.235 33.2325 21.7661C32.7643 21.2971 32.5012 20.6615 32.5012 19.9988V10.0013ZM37.5 12.4987V17.5012H47.5012V12.4987H37.5Z" fill="white"/>
</svg>
